<?xml version="1.0" encoding="utf-8"?>
<!-- Generator: Adobe Illustrator 19.2.0, SVG Export Plug-In . SVG Version: 6.00 Build 0)  -->
<svg xmlns="http://www.w3.org/2000/svg" xmlns:xlink="http://www.w3.org/1999/xlink" version="1.1" id="laptopfourhundre" x="0px" y="0px" viewBox="0 0 235.9999 203.8223" enable-background="new 0 0 235.9999 203.8223" xml:space="preserve" width="512" height="512">
<g>
	<rect x="104" y="32" fill="#D0E8FF" width="28" height="52"/>
	<path fill="#D0E8FF" d="M212,8H28v100h184V8z M88,56v8v24h-8V64H60h-8v-8V28h8v28h20V28h8V56z M140,88c0,2.2109-1.791,4-4,4h-36   c-2.209,0-4-1.7891-4-4V28c0-2.2109,1.791-4,4-4h36c2.209,0,4,1.7891,4,4V88z M188,88c0,2.2109-1.791,4-4,4h-36   c-2.209,0-4-1.7891-4-4V28c0-2.2109,1.791-4,4-4h36c2.209,0,4,1.7891,4,4V88z"/>
	<rect x="152" y="32" fill="#D0E8FF" width="28" height="52"/>
	<path fill="#5CB0FF" d="M26.666,116L10,156h216.4512l-13.334-40H26.666z M76,152H56v-8h20V152z M152,152H84v-8h68V152z M180,152   h-20v-8h20V152z"/>
	<path fill="#1C71DA" d="M235.795,158.7344L220,111.3496V4c0-2.2109-1.791-4-4-4H24c-2.209,0-4,1.7891-4,4v107.2017L0.3086,158.4609   c-0.5156,1.2344-0.3789,2.6445,0.3633,3.7578S2.6621,164,4,164h228c1.2852,0,2.4922-0.6172,3.2441-1.6602   S236.2012,159.9531,235.795,158.7344z M28,8h184v100H28V8z M10,156l16.666-40h186.4512l13.334,40H10z"/>
	<rect x="84" y="144" fill="#1C71DA" width="68" height="8"/>
	<rect x="160" y="144" fill="#1C71DA" width="20" height="8"/>
	<rect x="56" y="144" fill="#1C71DA" width="20" height="8"/>
	<polygon fill="#1C71DA" points="80,56 60,56 60,28 52,28 52,56 52,64 60,64 80,64 80,88 88,88 88,64 88,56 88,28 80,28  "/>
	<path fill="#1C71DA" d="M136,24h-36c-2.209,0-4,1.7891-4,4v60c0,2.2109,1.791,4,4,4h36c2.209,0,4-1.7891,4-4V28   C140,25.7891,138.209,24,136,24z M132,84h-28V32h28V84z"/>
	<path fill="#1C71DA" d="M184,24h-36c-2.209,0-4,1.7891-4,4v60c0,2.2109,1.791,4,4,4h36c2.209,0,4-1.7891,4-4V28   C188,25.7891,186.209,24,184,24z M180,84h-28V32h28V84z"/>
</g>
<path fill="#FF5D5D" d="M48.2525,95.8223c-1.0239,0-2.0474-0.3906-2.8286-1.1719c-1.562-1.5615-1.562-4.0947,0-5.6562  L59.566,74.8516c1.5625-1.5625,4.0947-1.5625,5.6572,0c1.562,1.5615,1.562,4.0947,0,5.6562L51.0811,94.6504  C50.2998,95.4316,49.2764,95.8223,48.2525,95.8223z"/>
<path fill="#FF5D5D" d="M62.3946,95.8223c-1.0239,0-2.0474-0.3906-2.8286-1.1719L45.4239,80.5088  c-1.562-1.5615-1.562-4.0947,0-5.6562c1.5625-1.5625,4.0947-1.5625,5.6572,0l14.1421,14.1416c1.562,1.5615,1.562,4.0947,0,5.6562  C64.4419,95.4316,63.4185,95.8223,62.3946,95.8223z"/>
<path fill="#00D40B" d="M66.2525,203.8223c-7.7197,0-14-6.2803-14-14s6.2803-14,14-14s14,6.2803,14,14  S73.9722,203.8223,66.2525,203.8223z M66.2525,183.8223c-3.3086,0-6,2.6914-6,6s2.6914,6,6,6c3.3086,0,6-2.6914,6-6  S69.5611,183.8223,66.2525,183.8223z"/>
<path fill="#FFC504" d="M195.5659,150.4492c-1.0239,0-2.0474-0.3906-2.8286-1.1719l-11.3135-11.3135  c-1.562-1.5615-1.562-4.0947,0-5.6562l11.3135-11.3135c1.5625-1.5625,4.0952-1.5625,5.6567,0l11.314,11.3135  c0.7505,0.75,1.1719,1.7676,1.1719,2.8281s-0.4214,2.0781-1.1719,2.8281l-11.314,11.3135  C197.6133,150.0586,196.5894,150.4492,195.5659,150.4492z M189.9092,135.1357l5.6567,5.6562l5.6572-5.6562l-5.6572-5.6562  L189.9092,135.1357z"/>
</svg>
