<?xml version="1.0" encoding="iso-8859-1"?>
<!-- Generator: Adobe Illustrator 19.0.0, SVG Export Plug-In . SVG Version: 6.00 Build 0)  -->
<svg version="1.1" id="Layer_1" xmlns="http://www.w3.org/2000/svg" xmlns:xlink="http://www.w3.org/1999/xlink" x="0px" y="0px"
	 viewBox="0 0 512 512" style="enable-background:new 0 0 512 512;" xml:space="preserve">
<g>
	<rect x="159.927" y="448.156" style="fill:#1D71B8;" width="192.16" height="24.02"/>
	<circle style="fill:#1D71B8;" cx="255.997" cy="23.811" r="16.013"/>
</g>
<rect x="135.907" y="472.176" style="fill:#FAC15C;" width="240.2" height="32.026"/>
<rect x="296.03" y="472.176" style="fill:#F9B233;" width="80.066" height="32.026"/>
<path style="fill:#77AAD4;" d="M496.196,183.941c0,70.75-107.539,128.104-240.195,128.104S15.806,254.691,15.806,183.941"/>
<ellipse style="fill:#FAC15C;" cx="255.997" cy="167.932" rx="240.2" ry="56.046"/>
<path style="fill:#77AAD4;" d="M256.001,223.975c-108.807,0-200.698-16.883-230.229-40.033h-9.966
	c0,70.75,107.539,128.104,240.195,128.104s240.195-57.354,240.195-128.104h-9.966C456.7,207.091,364.808,223.975,256.001,223.975z"
	/>
<path style="fill:#1D71B8;" d="M496.196,183.941C459.251,305.165,280.02,312.045,280.02,312.045
	c29.174-23.266,24.019-88.07,24.019-88.07S404.403,223.493,496.196,183.941"/>
<path style="fill:#F9B233;" d="M272.014,111.883c0,0,29.024,7.005,32.026,112.091c0,0,193.943-10.68,192.156-56.046
	C496.196,167.928,499.792,115.616,272.014,111.883z"/>
<g>
	<path style="fill:#1D1D1B;" d="M383.898,512H128.105v-47.623h255.793V512z M143.703,496.403H368.3v-16.428H143.703V496.403z"/>
	<path style="fill:#1D1D1B;" d="M427.616,120.703c-17.297-4.037-36.725-7.388-57.681-10l-90.381-90.381
		C277.861,8.842,267.947,0,256.001,0c-11.946,0-21.86,8.842-23.554,20.322l-90.381,90.381c-20.957,2.612-40.384,5.963-57.681,10
		c-50.681,11.826-76.379,27.714-76.379,47.225c0,41.343,26.329,79.909,74.138,108.593c44.71,26.827,103.42,42.07,166.057,43.241
		v120.594h-88.279v15.597h192.156v-15.597h-88.279V319.763c62.636-1.171,121.347-16.415,166.057-43.241
		c47.808-28.685,74.138-67.251,74.138-108.593C503.995,148.417,478.298,132.529,427.616,120.703z M249.515,46.717
		c2.064,0.585,4.238,0.906,6.487,0.906c2.249,0,4.423-0.32,6.487-0.906l27.704,57.927c-11.235-0.368-22.652-0.559-34.192-0.559
		c-11.54,0-22.956,0.191-34.192,0.559L249.515,46.717z M256.001,119.682c14.164,0,28.133,0.287,41.789,0.846l43.978,91.956
		c-26.976,2.424-55.944,3.691-85.767,3.691c-29.823,0-58.791-1.268-85.767-3.691l43.979-91.956
		C227.87,119.969,241.838,119.682,256.001,119.682z M276.009,38.836l69.197,69.198c-12.099-1.118-24.588-2.006-37.372-2.654
		L276.009,38.836z M256.001,15.597c4.53,0,8.214,3.685,8.214,8.214s-3.684,8.214-8.214,8.214c-4.529,0-8.215-3.685-8.215-8.214
		S251.472,15.597,256.001,15.597z M235.995,38.834l-31.826,66.546c-12.784,0.648-25.274,1.536-37.374,2.654L235.995,38.834z
		 M23.605,167.928c0-4.319,5.41-9.783,14.844-14.987c11.309-6.239,28.421-12.134,49.481-17.049
		c30.459-7.106,67.803-12.04,108.566-14.472l-42.761,89.408c-24.137-2.681-46.373-6.33-65.807-10.864
		C37.153,188.115,23.605,174.252,23.605,167.928z M421.832,263.146c-44.172,26.503-103.066,41.099-165.831,41.099
		S134.342,289.649,90.17,263.146c-31.843-19.105-53.059-42.648-61.899-68.082c12.747,7.622,31.467,14.337,56.114,20.087
		c45.931,10.719,106.879,16.62,171.615,16.62s125.685-5.902,171.615-16.62c24.647-5.75,43.368-12.465,56.114-20.087
		C474.891,220.5,453.674,244.041,421.832,263.146z M473.554,182.915c-11.309,6.239-28.42,12.135-49.48,17.049
		c-19.432,4.534-41.67,8.183-65.807,10.864l-42.761-89.408c40.764,2.432,78.108,7.366,108.566,14.472
		c50.777,11.849,64.325,25.712,64.325,32.036C488.397,172.248,482.987,177.711,473.554,182.915z"/>
</g>
<rect x="223.981" y="248.197" style="fill:#FFFFFF;" width="64.053" height="15.597"/>
<g>
</g>
<g>
</g>
<g>
</g>
<g>
</g>
<g>
</g>
<g>
</g>
<g>
</g>
<g>
</g>
<g>
</g>
<g>
</g>
<g>
</g>
<g>
</g>
<g>
</g>
<g>
</g>
<g>
</g>
</svg>
