<?xml version="1.0" encoding="iso-8859-1"?>
<!-- Generator: Adobe Illustrator 19.0.0, SVG Export Plug-In . SVG Version: 6.00 Build 0)  -->
<svg version="1.1" id="Layer_1" xmlns="http://www.w3.org/2000/svg" xmlns:xlink="http://www.w3.org/1999/xlink" x="0px" y="0px"
	 viewBox="0 0 504.32 504.32" style="enable-background:new 0 0 504.32 504.32;" xml:space="preserve">
<g transform="translate(1 1)">
	<path style="fill:#50DD8E;" d="M115.053,38.253c42.667,0,76.8,34.133,76.8,76.8s-34.133,76.8-76.8,76.8s-76.8-34.133-76.8-76.8
		S72.387,38.253,115.053,38.253"/>
	<path style="fill:#FF7474;" d="M388.12,311.32c42.667,0,76.8,34.133,76.8,76.8s-34.133,76.8-76.8,76.8s-76.8-34.133-76.8-76.8
		S345.453,311.32,388.12,311.32"/>
	<g>
		<path style="fill:#ECF4F7;" d="M388.12,4.12c61.44,0,110.933,49.493,110.933,110.933S449.56,225.987,388.12,225.987h-281.6
			c-59.733,0-102.4-52.907-102.4-110.933S46.787,4.12,106.52,4.12l0,0H388.12z M191.853,115.053c0-42.667-34.133-76.8-76.8-76.8
			s-76.8,34.133-76.8,76.8s34.133,76.8,76.8,76.8S191.853,157.72,191.853,115.053L191.853,115.053z"/>
		<path style="fill:#ECF4F7;" d="M388.12,277.187c61.44,0,110.933,49.493,110.933,110.933S449.56,499.053,388.12,499.053h-281.6
			c-59.733,0-102.4-52.907-102.4-110.933s42.667-110.933,102.4-110.933l0,0H388.12z M311.32,388.12c0,42.667,34.133,76.8,76.8,76.8
			s76.8-34.133,76.8-76.8s-34.133-76.8-76.8-76.8S311.32,345.453,311.32,388.12L311.32,388.12z"/>
	</g>
</g>
<path style="fill:#51565F;" d="M389.12,504.32h-281.6c-58.88,0-106.667-52.053-106.667-115.2c0-32.427,12.8-63.147,34.133-85.333
	c18.773-18.773,44.373-29.013,69.973-29.867c0.853,0,0.853-0.853,1.707-0.853h281.6c63.147,0,115.2,52.053,115.2,115.2
	S452.267,504.32,389.12,504.32z M106.667,283.307c-24.747,0-47.787,9.387-65.707,27.307c-20.48,20.48-32.427,48.64-32.427,79.36
	c0,58.88,44.373,106.667,98.133,106.667h281.6c58.88,0,106.667-47.787,106.667-106.667s-47.787-106.667-106.667-106.667H108.373
	C108.373,282.453,107.52,283.307,106.667,283.307C107.52,283.307,106.667,283.307,106.667,283.307z M389.12,470.187
	c-43.52,0-78.507-34.133-81.067-76.8h-192c-2.56,0-4.267-1.707-4.267-4.267c0-2.56,1.707-4.267,4.267-4.267h192
	c2.56-42.667,37.547-76.8,81.067-76.8c44.373,0,81.067,36.693,81.067,81.067S433.493,470.187,389.12,470.187z M389.12,316.587
	c-40.107,0-72.533,32.427-72.533,72.533s32.427,72.533,72.533,72.533s72.533-32.427,72.533-72.533S429.227,316.587,389.12,316.587z
	 M414.72,418.987c-0.853,0-2.56,0-3.413-0.853l-22.187-22.187l-22.187,22.187c-1.707,1.707-4.267,1.707-5.973,0
	c-0.853-0.853-0.853-1.707-0.853-3.413s0-2.56,0.853-3.413l22.187-22.187l-22.187-22.187c-0.853-0.853-0.853-1.707-0.853-3.413
	s0-2.56,0.853-3.413c1.707-1.707,4.267-1.707,5.973,0l22.187,22.187l22.187-22.187c1.707-1.707,4.267-1.707,5.973,0
	c0.853,0.853,0.853,1.707,0.853,3.413s0,2.56-0.853,3.413l-22.187,22.187l22.187,22.187c0.853,0.853,0.853,1.707,0.853,3.413
	s0,2.56-0.853,3.413S415.573,418.987,414.72,418.987z M389.12,231.253h-281.6c-58.88,0-106.667-52.053-106.667-115.2
	c0-32.427,12.8-63.147,34.133-85.333C53.76,11.947,79.36,1.707,104.96,0.853c0.853,0,0.853-0.853,1.707-0.853h281.6
	c63.147,0,115.2,52.053,115.2,115.2S452.267,231.253,389.12,231.253z M106.667,10.24c-24.747,0-47.787,9.387-65.707,27.307
	c-20.48,20.48-32.427,48.64-32.427,79.36c0,58.88,44.373,106.667,98.133,106.667h281.6c58.88,0,106.667-47.787,106.667-106.667
	S447.147,10.24,388.267,10.24H108.373C108.373,9.387,107.52,10.24,106.667,10.24C107.52,10.24,106.667,10.24,106.667,10.24z
	 M116.053,197.12c-44.373,0-81.067-36.693-81.067-81.067s36.693-81.067,81.067-81.067c43.52,0,78.507,34.133,81.067,76.8h192
	c2.56,0,4.267,1.707,4.267,4.267s-1.707,4.267-4.267,4.267h-192C194.56,162.987,159.573,197.12,116.053,197.12z M116.053,43.52
	c-40.107,0-72.533,32.427-72.533,72.533s32.427,72.533,72.533,72.533s72.533-32.427,72.533-72.533S156.16,43.52,116.053,43.52z
	 M107.52,145.92c-0.853,0-2.56,0-3.413-0.853l-25.6-25.6c-1.707-1.707-1.707-4.267,0-5.973s4.267-1.707,5.973,0l22.187,22.187
	l39.253-39.253c1.707-1.707,4.267-1.707,5.973,0s1.707,4.267,0,5.973l-42.667,42.667C110.08,145.92,108.373,145.92,107.52,145.92z"
	/>
<g>
</g>
<g>
</g>
<g>
</g>
<g>
</g>
<g>
</g>
<g>
</g>
<g>
</g>
<g>
</g>
<g>
</g>
<g>
</g>
<g>
</g>
<g>
</g>
<g>
</g>
<g>
</g>
<g>
</g>
</svg>
